<mxfile host="www.draw.io" modified="2019-12-28T04:28:13.286Z" agent="Mozilla/5.0 (Windows NT 6.3; Win64; x64) AppleWebKit/537.36 (KHTML, like Gecko) Chrome/79.0.3945.88 Safari/537.36" etag="ktsAXl7X0GyZMRa6U8CS" version="12.4.7" type="github">
  <diagram id="doKRkmgu3jrIl8iBUuYz" name="Page-1">
    <mxGraphModel dx="1108" dy="460" grid="1" gridSize="10" guides="1" tooltips="1" connect="1" arrows="1" fold="1" page="1" pageScale="1" pageWidth="850" pageHeight="1100" math="0" shadow="0">
      <root>
        <mxCell id="0"/>
        <mxCell id="1" parent="0"/>
        <mxCell id="HD-_ceg7MjAmfBPygAD--1" value="PatientListActivity" style="shape=umlLifeline;perimeter=lifelinePerimeter;whiteSpace=wrap;html=1;container=1;collapsible=0;recursiveResize=0;outlineConnect=0;" vertex="1" parent="1">
          <mxGeometry x="390" y="20" width="100" height="440" as="geometry"/>
        </mxCell>
        <mxCell id="HD-_ceg7MjAmfBPygAD--13" value="" style="html=1;points=[];perimeter=orthogonalPerimeter;" vertex="1" parent="HD-_ceg7MjAmfBPygAD--1">
          <mxGeometry x="45" y="120" width="10" height="40" as="geometry"/>
        </mxCell>
        <mxCell id="HD-_ceg7MjAmfBPygAD--17" value="putExtras(&quot;patientId&quot;, patientId)" style="html=1;verticalAlign=bottom;endArrow=block;" edge="1" parent="HD-_ceg7MjAmfBPygAD--1" target="HD-_ceg7MjAmfBPygAD--16">
          <mxGeometry width="80" relative="1" as="geometry">
            <mxPoint x="50" y="160" as="sourcePoint"/>
            <mxPoint x="130" y="160" as="targetPoint"/>
          </mxGeometry>
        </mxCell>
        <mxCell id="HD-_ceg7MjAmfBPygAD--19" value="startActivity(intent)" style="html=1;verticalAlign=bottom;endArrow=block;" edge="1" parent="HD-_ceg7MjAmfBPygAD--1" target="HD-_ceg7MjAmfBPygAD--4">
          <mxGeometry x="-0.5543" width="80" relative="1" as="geometry">
            <mxPoint x="50" y="220" as="sourcePoint"/>
            <mxPoint x="130" y="220" as="targetPoint"/>
            <mxPoint as="offset"/>
          </mxGeometry>
        </mxCell>
        <mxCell id="HD-_ceg7MjAmfBPygAD--2" value="PatientListAdapter" style="shape=umlLifeline;perimeter=lifelinePerimeter;whiteSpace=wrap;html=1;container=1;collapsible=0;recursiveResize=0;outlineConnect=0;" vertex="1" parent="1">
          <mxGeometry x="60" y="20" width="100" height="440" as="geometry"/>
        </mxCell>
        <mxCell id="HD-_ceg7MjAmfBPygAD--12" value="onClick()" style="html=1;verticalAlign=bottom;endArrow=block;" edge="1" parent="HD-_ceg7MjAmfBPygAD--2" target="HD-_ceg7MjAmfBPygAD--3">
          <mxGeometry width="80" relative="1" as="geometry">
            <mxPoint x="50" y="80" as="sourcePoint"/>
            <mxPoint x="130" y="80" as="targetPoint"/>
          </mxGeometry>
        </mxCell>
        <mxCell id="HD-_ceg7MjAmfBPygAD--3" value="itemActionInterface" style="shape=umlLifeline;perimeter=lifelinePerimeter;whiteSpace=wrap;html=1;container=1;collapsible=0;recursiveResize=0;outlineConnect=0;" vertex="1" parent="1">
          <mxGeometry x="230" y="20" width="110" height="440" as="geometry"/>
        </mxCell>
        <mxCell id="HD-_ceg7MjAmfBPygAD--9" value="" style="html=1;points=[];perimeter=orthogonalPerimeter;" vertex="1" parent="HD-_ceg7MjAmfBPygAD--3">
          <mxGeometry x="50" y="80" width="10" height="40" as="geometry"/>
        </mxCell>
        <mxCell id="HD-_ceg7MjAmfBPygAD--11" value="onClick()" style="html=1;verticalAlign=bottom;endArrow=block;" edge="1" parent="HD-_ceg7MjAmfBPygAD--3" target="HD-_ceg7MjAmfBPygAD--1">
          <mxGeometry width="80" relative="1" as="geometry">
            <mxPoint x="60" y="120" as="sourcePoint"/>
            <mxPoint x="140" y="120" as="targetPoint"/>
          </mxGeometry>
        </mxCell>
        <mxCell id="HD-_ceg7MjAmfBPygAD--4" value="AddPatientActivity" style="shape=umlLifeline;perimeter=lifelinePerimeter;whiteSpace=wrap;html=1;container=1;collapsible=0;recursiveResize=0;outlineConnect=0;" vertex="1" parent="1">
          <mxGeometry x="720" y="20" width="100" height="510" as="geometry"/>
        </mxCell>
        <mxCell id="HD-_ceg7MjAmfBPygAD--20" value="" style="html=1;points=[];perimeter=orthogonalPerimeter;" vertex="1" parent="HD-_ceg7MjAmfBPygAD--4">
          <mxGeometry x="45" y="220" width="10" height="260" as="geometry"/>
        </mxCell>
        <mxCell id="HD-_ceg7MjAmfBPygAD--16" value="Intent" style="shape=umlLifeline;perimeter=lifelinePerimeter;whiteSpace=wrap;html=1;container=1;collapsible=0;recursiveResize=0;outlineConnect=0;" vertex="1" parent="1">
          <mxGeometry x="580" y="90" width="100" height="370" as="geometry"/>
        </mxCell>
        <mxCell id="HD-_ceg7MjAmfBPygAD--18" value="return" style="html=1;verticalAlign=bottom;endArrow=open;dashed=1;endSize=8;" edge="1" parent="1" source="HD-_ceg7MjAmfBPygAD--16" target="HD-_ceg7MjAmfBPygAD--1">
          <mxGeometry relative="1" as="geometry">
            <mxPoint x="520" y="230" as="sourcePoint"/>
            <mxPoint x="440" y="230" as="targetPoint"/>
          </mxGeometry>
        </mxCell>
        <mxCell id="HD-_ceg7MjAmfBPygAD--5" value="AddPatientViewModel&lt;br&gt;" style="shape=umlLifeline;perimeter=lifelinePerimeter;whiteSpace=wrap;html=1;container=1;collapsible=0;recursiveResize=0;outlineConnect=0;" vertex="1" parent="1">
          <mxGeometry x="1000" y="20" width="130" height="490" as="geometry"/>
        </mxCell>
        <mxCell id="HD-_ceg7MjAmfBPygAD--22" value="&amp;nbsp;getIntent().getExtras() == null" style="shape=umlFrame;whiteSpace=wrap;html=1;" vertex="1" parent="1">
          <mxGeometry x="740" y="260" width="500" height="220" as="geometry"/>
        </mxCell>
        <mxCell id="HD-_ceg7MjAmfBPygAD--23" value="" style="line;strokeWidth=1;fillColor=none;align=left;verticalAlign=middle;spacingTop=-1;spacingLeft=3;spacingRight=3;rotatable=0;labelPosition=right;points=[];portConstraint=eastwest;" vertex="1" parent="1">
          <mxGeometry x="740" y="370" width="500" height="8" as="geometry"/>
        </mxCell>
        <mxCell id="HD-_ceg7MjAmfBPygAD--26" value="" style="html=1;points=[];perimeter=orthogonalPerimeter;" vertex="1" parent="1">
          <mxGeometry x="775" y="330" width="10" height="40" as="geometry"/>
        </mxCell>
        <mxCell id="HD-_ceg7MjAmfBPygAD--27" value="addPatientViewModel&lt;br&gt;.getPatientId()&lt;br&gt;.setValue(patient.getId() + 1)" style="edgeStyle=orthogonalEdgeStyle;html=1;align=left;spacingLeft=2;endArrow=block;rounded=0;entryX=1;entryY=0;" edge="1" target="HD-_ceg7MjAmfBPygAD--26" parent="1">
          <mxGeometry relative="1" as="geometry">
            <mxPoint x="780" y="310" as="sourcePoint"/>
            <Array as="points">
              <mxPoint x="805" y="310"/>
            </Array>
          </mxGeometry>
        </mxCell>
        <mxCell id="HD-_ceg7MjAmfBPygAD--29" value="" style="html=1;points=[];perimeter=orthogonalPerimeter;" vertex="1" parent="1">
          <mxGeometry x="775" y="420" width="10" height="40" as="geometry"/>
        </mxCell>
        <mxCell id="HD-_ceg7MjAmfBPygAD--30" value="addPatientViewModel&lt;br&gt;.getPatientId()&lt;br&gt;.setValue(getIntent()&lt;br&gt;.getExtras().getString(&quot;patientId&quot;))" style="edgeStyle=orthogonalEdgeStyle;html=1;align=left;spacingLeft=2;endArrow=block;rounded=0;entryX=1;entryY=0;" edge="1" target="HD-_ceg7MjAmfBPygAD--29" parent="1">
          <mxGeometry relative="1" as="geometry">
            <mxPoint x="780" y="400" as="sourcePoint"/>
            <Array as="points">
              <mxPoint x="805" y="400"/>
            </Array>
          </mxGeometry>
        </mxCell>
      </root>
    </mxGraphModel>
  </diagram>
</mxfile>
